# xmcd CD database file
#
# Track frame offsets:
#	150
#	20857
#	50246
#	65546
#	97589
#	111222
#	139085
#	162736
#	182607
#	204298
#	221461
#
# Disc length: 3291 seconds
#
# Revision: 1
# Processed by: cddbd v1.5.2PL0 Copyright (c) Steve Scherf et al.
# Submitted via: CDex 1.78
#
DISCID=9f0cd90b
DTITLE=Chano Dominguez and Nino Josele - Chano and Josele 
DYEAR=2014
DGENRE=Jazz
TTITLE0=Alma de Mujer
TTITLE1=Django
TTITLE2=Because
TTITLE3=Je t'attendrai
TTITLE4=Lua Branca
TTITLE5=Es Esto una Buleria
TTITLE6=Two for the Road
TTITLE7=Rosa
TTITLE8=Luiza
TTITLE9=Olha Maria
TTITLE10=Solitude in Granada
EXTD=YEAR: 2014
EXTT0=
EXTT1=
EXTT2=
EXTT3=
EXTT4=
EXTT5=
EXTT6=
EXTT7=
EXTT8=
EXTT9=
EXTT10=
PLAYORDER=
